<svg width="40" height="40" viewBox="0 0 40 40" fill="none" xmlns="http://www.w3.org/2000/svg">
<path d="M23.625 9.5C26.9938 9.50009 29.7499 12.2562 29.75 15.625V24.375C29.7499 27.7438 26.9938 30.4999 23.625 30.5H14.875C11.5062 30.4999 8.75009 27.7438 8.75 24.375V15.625C8.75009 12.2562 11.5062 9.50009 14.875 9.5H23.625ZM14.875 11.25C13.7157 11.2535 12.6049 11.7154 11.7852 12.5352C10.9654 13.3549 10.5035 14.4657 10.5 15.625V24.375C10.5035 25.5343 10.9654 26.6451 11.7852 27.4648C12.6049 28.2846 13.7157 28.7465 14.875 28.75H23.625C24.7843 28.7465 25.8951 28.2846 26.7148 27.4648C27.5346 26.6451 27.9965 25.5343 28 24.375V15.625C27.9965 14.4657 27.5346 13.3549 26.7148 12.5352C25.8951 11.7154 24.7843 11.2535 23.625 11.25H14.875ZM19.25 14.75C20.6424 14.75 21.9773 15.3035 22.9619 16.2881C23.9465 17.2727 24.5 18.6076 24.5 20C24.5 21.0384 24.1921 22.0536 23.6152 22.917C23.0384 23.7803 22.218 24.4533 21.2588 24.8506C20.2996 25.2478 19.2439 25.352 18.2256 25.1494C17.2072 24.9468 16.2723 24.4461 15.5381 23.7119C14.8039 22.9777 14.3032 22.0428 14.1006 21.0244C13.898 20.0061 14.0022 18.9504 14.3994 17.9912C14.7967 17.032 15.4697 16.2116 16.333 15.6348C17.1964 15.0579 18.2116 14.75 19.25 14.75ZM19.25 16.5C18.322 16.501 17.4326 16.8702 16.7764 17.5264C16.1202 18.1826 15.751 19.072 15.75 20C15.75 20.6922 15.9553 21.3688 16.3398 21.9443C16.7244 22.5198 17.2708 22.9685 17.9102 23.2334C18.5497 23.4983 19.2537 23.5676 19.9326 23.4326C20.6116 23.2976 21.2351 22.9641 21.7246 22.4746C22.2141 21.9851 22.5476 21.3616 22.6826 20.6826C22.8176 20.0037 22.7483 19.2997 22.4834 18.6602C22.2185 18.0208 21.7698 17.4744 21.1943 17.0898C20.6188 16.7053 19.9422 16.5 19.25 16.5ZM24.6816 13.0254C24.936 12.9749 25.1998 13.0004 25.4395 13.0996C25.6791 13.1989 25.8841 13.3674 26.0283 13.583C26.1725 13.7988 26.25 14.053 26.25 14.3125C26.2504 14.485 26.2162 14.656 26.1504 14.8154C26.0846 14.9747 25.988 15.1193 25.8662 15.2412C25.7443 15.3631 25.5998 15.4605 25.4404 15.5264C25.2811 15.5922 25.1099 15.6254 24.9375 15.625C24.6779 15.625 24.4238 15.5485 24.208 15.4043C23.9922 15.2601 23.8239 15.0543 23.7246 14.8145C23.6254 14.5747 23.5998 14.3111 23.6504 14.0566C23.701 13.8022 23.8254 13.5683 24.0088 13.3848C24.1923 13.2012 24.427 13.076 24.6816 13.0254Z" fill="white"/>
</svg>
