<svg width="40" height="40" viewBox="0 0 40 40" fill="none" xmlns="http://www.w3.org/2000/svg">
<path d="M31.0925 14.9745C31.0925 12.8652 29.5409 11.1683 27.6237 11.1683C25.0269 11.0469 22.3784 11 19.6719 11H18.8281C16.1281 11 13.475 11.0469 10.8781 11.1687C8.9656 11.1687 7.41404 12.875 7.41404 14.9844C7.29685 16.6527 7.24717 18.3214 7.24998 19.9902C7.24529 21.6589 7.29842 23.3292 7.40935 25.0011C7.40935 27.1105 8.96092 28.8214 10.8734 28.8214C13.6015 28.948 16.4 29.0042 19.2453 28.9995C22.0953 29.0089 24.8859 28.9495 27.6172 28.8214C29.5344 28.8214 31.0859 27.1105 31.0859 25.0011C31.1984 23.3277 31.25 21.6589 31.2453 19.9855C31.2559 18.3167 31.205 16.6464 31.0925 14.9745ZM16.9531 24.5886V15.3777L23.75 19.9808L16.9531 24.5886Z" fill="white"/>
</svg>
