<svg width="40" height="40" viewBox="0 0 40 40" fill="none" xmlns="http://www.w3.org/2000/svg">
<path d="M29.2498 15.7333H23.1249V14H29.2498V15.7333ZM30.76 24.4C30.3733 25.5241 28.9847 27 26.2967 27C23.607 27 21.4283 25.5015 21.4283 22.0817C21.4283 18.693 23.4626 16.951 26.2109 16.951C28.9077 16.951 30.5544 18.4954 30.914 20.7869C30.9823 21.2254 31.0094 21.8165 30.9971 22.6415H23.9736C24.0873 25.4244 27.0212 25.5119 27.9881 24.4H30.76ZM24.0348 20.9333H28.3792C28.2873 19.5926 27.3852 19.0102 26.2118 19.0102C24.9291 19.0102 24.2195 19.6758 24.0348 20.9333ZM15.6577 26.9896H10V14.0182H16.0838C20.8753 14.0884 20.9663 18.7363 18.4638 20.0034C21.4921 21.0954 21.5936 26.9896 15.6577 26.9896ZM12.625 19.2H15.7609C17.9554 19.2 18.3037 16.6 15.4879 16.6H12.625V19.2ZM15.5921 21.8H12.625V24.4139H15.5483C18.2214 24.4139 18.0578 21.8 15.5921 21.8Z" fill="black"/>
</svg>
