<svg width="40" height="40" viewBox="0 0 40 40" fill="none" xmlns="http://www.w3.org/2000/svg">
<path fill-rule="evenodd" clip-rule="evenodd" d="M13.1973 25.5088L13.3918 24.8262L13.0064 24.2208C12.2128 22.9741 11.7559 21.5138 11.7559 19.9474C11.7559 15.3692 15.6734 11.6579 20.5059 11.6579C25.3384 11.6579 29.2559 15.3692 29.2559 19.9474C29.2559 24.5255 25.3384 28.2368 20.5059 28.2368C19.3185 28.2368 18.1905 28.0137 17.1628 27.6108L16.5573 27.3734L15.9362 27.5711L12.2782 28.7356L13.1973 25.5088ZM11.7278 30.6598L11.7303 30.659L16.4936 29.1427C17.7298 29.6273 19.0849 29.8947 20.5059 29.8947C26.3049 29.8947 31.0059 25.4411 31.0059 19.9474C31.0059 14.4536 26.3049 10 20.5059 10C14.7069 10 10.0059 14.4536 10.0059 19.9474C10.0059 21.8239 10.5544 23.5791 11.5078 25.0769L10.2848 29.3702L10.2841 29.3727L10.249 29.4962L10.0209 30.297C9.8995 30.723 10.3283 31.1054 10.7699 30.9648L11.5998 30.7006L11.7278 30.6598ZM18.8187 17.4229C18.6423 16.4332 17.9014 15.0095 17.7073 14.9747C16.061 14.6801 14.9033 16.2668 15.2554 17.8015C15.6258 19.4162 16.491 20.9616 18.1669 22.4722C19.8427 23.9827 21.6965 24.8865 23.1077 24.8865C24.5189 24.8865 26.0212 24.0255 25.6287 22.376C25.3641 22.1677 24.0058 21.3088 23.4942 21.222C23.0482 21.1463 22.7631 21.5194 22.522 21.8349C22.4865 21.8812 22.4521 21.9264 22.4181 21.9686C22.1535 22.2985 21.9419 22.4722 21.7125 22.4722C21.4832 22.4722 20.5659 22.1249 19.4899 21.1178C18.4138 20.1108 17.8345 19.3501 18.0434 18.9648C18.0873 18.8838 18.1711 18.7819 18.2682 18.6637C18.5351 18.3391 18.9023 17.8924 18.8187 17.4229Z" fill="black"/>
</svg>
